<svg width="150" height="24" viewBox="0 0 150 24" fill="none" xmlns="http://www.w3.org/2000/svg">
    <path
        d="M130.684 23.5705L137.23 14.9665L131.019 6.75487H136.223L139.888 11.6875L143.608 6.75487H148.756L142.573 14.9665L149.092 23.5705H143.888L139.888 18.1895L135.831 23.5705H130.684Z"
        fill="white" />
    <path
        d="M121.866 23.9074C120.057 23.9074 118.481 23.5524 117.138 22.8424C115.795 22.1138 114.76 21.0955 114.032 19.7876C113.305 18.461 112.941 16.9009 112.941 15.1073C112.941 13.3136 113.296 11.7722 114.004 10.483C114.713 9.17507 115.72 8.17547 117.026 7.48417C118.35 6.77417 119.907 6.41917 121.698 6.41917C123.451 6.41917 124.952 6.75549 126.202 7.42811C127.47 8.10074 128.44 9.06297 129.111 10.3148C129.783 11.5666 130.118 13.0614 130.118 14.799V16.3684H117.39C117.576 17.6203 118.052 18.5731 118.816 19.2271C119.581 19.881 120.588 20.208 121.838 20.208C122.826 20.208 123.609 20.0398 124.188 19.7035C124.766 19.3672 125.176 18.8534 125.419 18.1621H130.062C129.689 19.9558 128.785 21.3664 127.349 22.394C125.913 23.403 124.085 23.9074 121.866 23.9074ZM117.501 13.2856H125.67C125.521 12.2206 125.111 11.4265 124.439 10.9033C123.768 10.3615 122.863 10.0906 121.726 10.0906C120.588 10.0906 119.656 10.3615 118.928 10.9033C118.219 11.4452 117.744 12.2393 117.501 13.2856Z"
        fill="white" />
    <path d="M95.543 23.5706V0.869488H100.271V19.4227H111.937V23.5706H95.543Z" fill="white" />
    <path
        d="M74.3799 23.5714V11.352H72.0859V6.75576H76.7858V9.50232H77.9608C78.6136 8.53075 79.4342 7.78338 80.4226 7.26023C81.4111 6.71839 82.642 6.44748 84.1154 6.44748C86.4467 6.44748 88.2465 7.09207 89.5147 8.38127C90.8016 9.65179 91.445 11.3614 91.445 13.51V23.5714H86.8011V14.3789C86.8011 13.1457 86.4654 12.2115 85.794 11.5762C85.1412 10.9223 84.1807 10.5953 82.9125 10.5953C81.6442 10.5953 80.6744 10.9223 80.003 11.5762C79.3503 12.2115 79.0239 13.1457 79.0239 14.3789V23.5714H74.3799Z"
        fill="white" />
    <path
        d="M64.7668 23.5699V6.75428H69.4107V23.5699H64.7668ZM67.0887 5.10074C66.38 5.10074 65.7739 4.85785 65.2703 4.37207C64.7854 3.8676 64.543 3.26037 64.543 2.55037C64.543 1.84038 64.7854 1.24249 65.2703 0.756703C65.7739 0.252235 66.38 0 67.0887 0C67.7975 0 68.3943 0.252235 68.8792 0.756703C69.3827 1.24249 69.6345 1.84038 69.6345 2.55037C69.6345 3.26037 69.3827 3.8676 68.8792 4.37207C68.3943 4.85785 67.7975 5.10074 67.0887 5.10074Z"
        fill="white" />
    <path
        d="M50.0178 23.8794C48.0408 23.8794 46.4929 23.403 45.3738 22.4501C44.2548 21.4785 43.6953 20.208 43.6953 18.6385C43.6953 16.9757 44.2735 15.6958 45.4298 14.799C46.5861 13.9021 48.246 13.4537 50.4094 13.4537H55.2212V12.8091C55.2212 10.9968 54.1395 10.0906 51.9761 10.0906C50.0924 10.0906 48.9547 10.7445 48.5631 12.0524H43.9471C44.3201 10.2027 45.1873 8.80139 46.5488 7.8485C47.9103 6.89562 49.7194 6.41917 51.9761 6.41917C54.4752 6.41917 56.3776 6.9797 57.6831 8.10074C59.0073 9.22178 59.6693 10.8566 59.6693 13.0053V18.9749H61.8514V23.5711H57.1516V20.8246H55.9766C55.3984 21.7961 54.6244 22.5528 53.6546 23.0947C52.6848 23.6178 51.4725 23.8794 50.0178 23.8794ZM50.7172 20.3481C51.5937 20.3481 52.3677 20.1893 53.0391 19.8717C53.7106 19.5541 54.2421 19.1337 54.6338 18.6105C55.0254 18.0687 55.2212 17.4614 55.2212 16.7888V16.5366H50.6332C48.9547 16.5366 48.1154 17.1625 48.1154 18.4143C48.1154 19.0309 48.3486 19.5073 48.8148 19.8437C49.2811 20.18 49.9152 20.3481 50.7172 20.3481Z"
        fill="white" />
    <path
        d="M23.9727 23.5702V0.0282974H28.6166V9.16479H28.7285C29.2694 8.26796 29.9967 7.59534 30.9106 7.14692C31.8245 6.67982 32.9062 6.44627 34.1558 6.44627C36.2632 6.44627 37.9325 7.09087 39.1634 8.38006C40.413 9.65058 41.0377 11.3602 41.0377 13.5088V23.5702H36.3938V14.3776C36.3938 13.1445 36.0581 12.2103 35.3867 11.575C34.7339 10.9211 33.7734 10.5941 32.5052 10.5941C31.237 10.5941 30.2672 10.9211 29.5957 11.575C28.943 12.2103 28.6166 13.1445 28.6166 14.3776V23.5702H23.9727Z"
        fill="white" />
    <path
        d="M11.4979 23.9906C9.1853 23.9906 7.16174 23.5142 5.42726 22.5613C3.71142 21.5897 2.37792 20.2258 1.42675 18.4695C0.475584 16.6945 0 14.6299 0 12.2757C0 9.88418 0.475584 7.81025 1.42675 6.05395C2.37792 4.29765 3.71142 2.94306 5.42726 1.99017C7.16174 1.0186 9.1853 0.532814 11.4979 0.532814C13.363 0.532814 15.0135 0.859785 16.4496 1.51373C17.9044 2.14898 19.0886 3.0645 20.0025 4.26028C20.935 5.45606 21.5225 6.88539 21.765 8.54827H16.8413C16.6361 7.33381 16.058 6.3996 15.1068 5.74566C14.1556 5.07304 12.9527 4.73672 11.4979 4.73672C9.40911 4.73672 7.75855 5.40001 6.54628 6.72658C5.334 8.05314 4.72787 9.90286 4.72787 12.2757C4.72787 14.6299 5.334 16.4796 6.54628 17.8249C7.75855 19.1515 9.40911 19.8148 11.4979 19.8148C12.9527 19.8148 14.1556 19.4784 15.1068 18.8058C16.058 18.1332 16.6361 17.1896 16.8413 15.9752H21.765C21.5225 17.6381 20.935 19.0767 20.0025 20.2912C19.0886 21.487 17.9044 22.4025 16.4496 23.0378C15.0135 23.673 13.363 23.9906 11.4979 23.9906Z"
        fill="white" />
</svg>